<svg width="218" height="28" viewBox="0 0 218 28" fill="none" xmlns="http://www.w3.org/2000/svg">
<path d="M1.75267 4.52575C2.99933 2.99305 4.70376 1.85906 6.63985 1.2742C9.00365 0.535724 11.4801 0.181292 13.9664 0.225591C16.5111 0.175147 19.0479 0.515457 21.4799 1.23356C23.3675 1.78106 25.0401 2.85699 26.2821 4.32253C27.4573 5.8523 28.0564 7.7175 27.982 9.61444V10.3623H25.7041V9.39495C25.7876 7.84124 25.3205 6.30606 24.3782 5.03788C23.3614 3.87738 21.982 3.05962 20.443 2.70489C18.3336 2.1877 16.1605 1.94704 13.9834 1.98954C12.0108 1.97014 10.0451 2.21644 8.14427 2.72116C6.51538 3.13402 5.04198 3.97952 3.89455 5.15983C2.76681 6.47052 2.19634 8.13923 2.29665 9.83394V10.8663C2.23727 11.9852 2.47597 13.1003 2.99034 14.107C3.50471 15.1136 4.27786 15.9788 5.23742 16.6215C7.19796 17.9601 10.1105 18.6294 13.9749 18.6294C15.6452 18.637 17.3136 18.5174 18.9641 18.2717C20.3598 18.0723 21.7103 17.649 22.9588 17.0198C24.0403 16.4636 24.927 15.6155 25.5087 14.5812H27.7865C27.1591 16.0658 26.0511 17.3193 24.6247 18.1579C23.113 19.0236 21.4477 19.6159 19.712 19.9056C17.8138 20.238 15.8877 20.404 13.9579 20.4015C11.4731 20.4426 8.99812 20.0939 6.63135 19.3691C5.17964 18.8218 3.87415 17.9712 2.81038 16.8793C1.74661 15.7875 0.951438 14.4821 0.48299 13.0585C0.0145423 11.635 -0.115315 10.1293 0.102891 8.65157C0.321097 7.17385 0.881842 5.76142 1.74416 4.51762L1.75267 4.52575ZM27.1745 8.5902V10.3704H1.91416V8.5902H27.1745Z" fill="white"/>
<path d="M56.532 9.47704L68.3293 0.608398H71.3126L57.9769 10.5907L57.5264 10.7451L45.1427 20.012H42.1594L55.9115 9.75339L56.532 9.47704ZM55.9115 10.7045L42.4484 0.608398H45.7207L57.484 9.43636L57.9769 9.63958L71.7715 20.012H68.4993L56.362 10.867L55.9115 10.7045Z" fill="white"/>
<path d="M77.8141 0.608394V6.38802L77.9756 6.50997V27.9296H75.6978V0.608394H77.8141ZM80.1685 2.55121C82.4633 0.990464 85.9141 0.210087 90.5208 0.210087C93.2409 0.150791 95.9539 0.499147 98.5613 1.24247C100.633 1.73981 102.452 2.92339 103.697 4.58289C104.942 6.24238 105.532 8.27025 105.361 10.3062C105.481 12.3978 104.884 14.4699 103.661 16.2077C102.385 17.7804 100.616 18.9201 98.6123 19.4593C95.9988 20.1715 93.2887 20.5058 90.5718 20.451C85.9651 20.451 82.5143 19.6842 80.2195 18.1505C77.9246 16.6169 76.7914 14.0156 76.8197 10.3468C76.78 6.70504 77.8934 4.10654 80.16 2.55121H80.1685ZM103.117 10.0704C103.191 8.42865 102.685 6.81079 101.681 5.47759C100.585 4.19791 99.0996 3.27717 97.4309 2.84384C95.1869 2.23917 92.8596 1.96506 90.5293 2.03095C88.1573 1.97309 85.7906 2.27491 83.5173 2.92516C81.8696 3.37574 80.4123 4.31152 79.3525 5.59954C78.3988 6.92252 77.9187 8.50533 77.9841 10.1111V10.6313C77.9187 12.2371 78.3988 13.8199 79.3525 15.1428C80.4096 16.4285 81.869 17.3571 83.5173 17.7929C85.7925 18.433 88.1584 18.7292 90.5293 18.6708C92.8592 18.7273 95.1849 18.4534 97.4309 17.8579C99.0969 17.4416 100.584 16.5344 101.681 15.2648C102.692 13.9289 103.199 12.3034 103.117 10.6557V10.0704Z" fill="white"/>
<path d="M113.418 0.608398V7.52609L112.721 7.72117C112.651 6.27808 113.072 4.85202 113.92 3.65673C114.743 2.59157 115.884 1.78956 117.192 1.35624C118.693 0.849053 120.276 0.601353 121.867 0.624672H127.817V2.4049H121.867C119.709 2.28527 117.569 2.83555 115.764 3.97377C114.285 5.01427 113.546 6.81619 113.546 9.3795V20.0283H111.268V0.608398H113.418Z" fill="white"/>
<path d="M130.647 4.52575C131.894 2.99305 133.598 1.85906 135.534 1.2742C137.898 0.535724 140.375 0.181292 142.861 0.225591C145.406 0.175147 147.942 0.515457 150.374 1.23356C152.264 1.78097 153.94 2.85677 155.185 4.32253C156.357 5.85404 156.955 7.718 156.885 9.61444V10.3623H154.607V9.39495C154.691 7.84124 154.223 6.30606 153.281 5.03788C152.264 3.87738 150.885 3.05962 149.346 2.70489C147.237 2.1872 145.063 1.94654 142.886 1.98954C140.914 1.97014 138.948 2.21644 137.047 2.72116C135.418 3.13402 133.945 3.97952 132.797 5.15983C131.67 6.47052 131.099 8.13923 131.2 9.83394V10.8663C131.142 11.985 131.381 13.0996 131.895 14.1059C132.41 15.1123 133.182 15.9777 134.14 16.6215C136.101 17.9601 139.013 18.6294 142.878 18.6294C144.548 18.637 146.216 18.5174 147.867 18.2717C149.263 18.0735 150.614 17.6502 151.862 17.0198C152.945 16.4659 153.832 15.6173 154.412 14.5812H156.655C156.028 16.0658 154.92 17.3193 153.494 18.1579C151.982 19.0236 150.317 19.6159 148.581 19.9056C146.683 20.238 144.757 20.404 142.827 20.4015C140.342 20.4426 137.867 20.0939 135.5 19.3691C134.049 18.8218 132.743 17.9712 131.679 16.8793C130.616 15.7875 129.82 14.4821 129.352 13.0585C128.883 11.635 128.754 10.1293 128.972 8.65157C129.19 7.17385 129.751 5.76142 130.613 4.51762L130.647 4.52575ZM156.069 8.5902V10.3704H130.817V8.5902H156.069Z" fill="white"/>
<path d="M162.902 14.0698C163.078 14.896 163.488 15.6599 164.088 16.2779C164.687 16.8959 165.453 17.3441 166.302 17.5733C168.826 18.2097 171.436 18.4837 174.045 18.3862C177.852 18.3862 180.649 18.0611 182.451 17.4189C184.252 16.7767 185.136 15.7931 185.136 14.3868C185.16 13.9813 185.08 13.5765 184.904 13.2069C184.728 12.8374 184.46 12.5143 184.125 12.2652C183.309 11.7243 182.371 11.3735 181.388 11.241C180.116 11.0301 178.829 10.916 177.538 10.8996C176.119 10.8996 174.64 10.8996 173.11 10.8996C171.58 10.8996 170.101 10.8507 168.682 10.7532C167.378 10.6829 166.086 10.473 164.831 10.1273C163.795 9.8548 162.852 9.32797 162.094 8.59907C161.378 7.81221 161.015 6.78711 161.083 5.74582C161.092 5.15577 161.232 4.57427 161.494 4.04017C161.756 3.50606 162.135 3.03166 162.604 2.64872C163.858 1.65668 165.356 0.987855 166.956 0.705905C169.337 0.230826 171.766 0.0127013 174.198 0.0556039C176.512 0.00787584 178.825 0.212416 181.091 0.66527C182.591 0.944422 183.993 1.57888 185.17 2.51054C186.09 3.32347 186.691 4.41397 186.87 5.59951H184.592C184.514 5.1196 184.32 4.66381 184.025 4.26859C183.73 3.87338 183.342 3.54972 182.893 3.32343C181.723 2.72005 180.446 2.32867 179.127 2.16909C177.486 1.94115 175.83 1.82978 174.172 1.83583C171.521 1.75372 168.873 2.07473 166.327 2.7869C164.384 3.42095 163.412 4.42352 163.412 5.79459C163.385 6.18659 163.464 6.57861 163.641 6.93305C163.818 7.2875 164.088 7.59245 164.423 7.81868C165.253 8.321 166.187 8.6455 167.16 8.76979C168.434 8.96 169.721 9.06589 171.01 9.08678C172.43 9.08678 173.9 9.08678 175.413 9.08678C176.926 9.08678 178.405 9.14369 179.824 9.24937C181.13 9.33469 182.422 9.56104 183.675 9.92408C184.72 10.2066 185.665 10.7543 186.411 11.5092C187.127 12.3096 187.489 13.3441 187.423 14.395C187.454 15.3885 187.148 16.365 186.55 17.1783C185.953 17.9915 185.096 18.5979 184.108 18.9065C181.898 19.7898 178.558 20.2315 174.087 20.2315C171.7 20.2745 169.314 20.0893 166.965 19.6787C165.364 19.4369 163.861 18.7884 162.613 17.801C161.536 16.8122 160.836 15.5074 160.624 14.0942L162.902 14.0698Z" fill="white"/>
<path d="M193.339 14.0696C193.515 14.8958 193.925 15.6597 194.525 16.2777C195.125 16.8957 195.891 17.3439 196.739 17.5732C199.264 18.2086 201.873 18.4825 204.482 18.3861C208.298 18.3861 211.095 18.0609 212.888 17.4187C214.681 16.7765 215.582 15.793 215.582 14.3867C215.606 13.9812 215.526 13.5763 215.35 13.2068C215.174 12.8373 214.906 12.5141 214.571 12.265C213.755 11.7242 212.817 11.3734 211.834 11.2408C210.562 11.0303 209.275 10.9162 207.984 10.8994C206.564 10.8994 205.086 10.8994 203.556 10.8994C202.026 10.8994 200.547 10.8506 199.119 10.753C197.815 10.6814 196.524 10.4715 195.269 10.1271C194.235 9.85475 193.294 9.32779 192.54 8.59891C191.821 7.8133 191.454 6.78806 191.52 5.74566C191.512 5.15212 191.637 4.56376 191.888 4.0208C192.138 3.47784 192.509 2.99311 192.974 2.59978C194.225 1.60898 195.72 0.940234 197.317 0.656968C199.701 0.182366 202.133 -0.0357506 204.567 0.00666754C206.882 -0.0406377 209.194 0.163898 211.46 0.616334C212.96 0.895486 214.363 1.52994 215.54 2.46161C216.457 3.27696 217.056 4.36626 217.24 5.55057H214.962C214.882 5.07129 214.687 4.61629 214.392 4.22134C214.097 3.8264 213.71 3.5023 213.262 3.2745C212.088 2.6724 210.809 2.28113 209.488 2.12016C207.85 1.89191 206.197 1.78053 204.542 1.7869C201.89 1.70478 199.242 2.02579 196.697 2.73796C194.753 3.37201 193.778 4.37459 193.773 5.74566C193.748 6.13829 193.828 6.53055 194.007 6.88491C194.185 7.23928 194.456 7.54391 194.793 7.76974C195.619 8.2726 196.55 8.59715 197.521 8.72081C198.795 8.91031 200.082 9.01624 201.371 9.03785C202.799 9.03785 204.27 9.03785 205.783 9.03785C207.295 9.03785 208.774 9.09476 210.194 9.20044C211.499 9.28726 212.791 9.51358 214.044 9.87515C215.089 10.1576 216.035 10.7054 216.781 11.4603C217.488 12.2648 217.85 13.2963 217.792 14.346C217.821 15.3371 217.514 16.3105 216.916 17.1207C216.319 17.931 215.463 18.5346 214.477 18.8413C212.268 19.7246 208.927 20.1663 204.457 20.1663C202.069 20.2089 199.683 20.0237 197.334 19.6135C195.736 19.3719 194.236 18.7232 192.991 17.7358C191.914 16.747 191.214 15.4422 191.002 14.029L193.339 14.0696Z" fill="white"/>
<path d="M46.6552 10.2331L33.1835 20.1341H30.2087L43.3149 10.3469L30.4977 0.730469H33.77L46.6552 10.2331Z" fill="white"/>
</svg>
